<svg width="309" height="256" viewBox="0 0 309 256" fill="none" xmlns="http://www.w3.org/2000/svg">
<rect x="0.0272827" y="11" width="308.945" height="236" rx="12.8727" fill="#080B00"/>
<path d="M73.7017 171.48C69.4501 169.59 61.0035 167.568 61.2302 174.598" stroke="white" stroke-width="2.14545" stroke-linecap="round" stroke-linejoin="round"/>
<path d="M71.4341 176.865C65.5762 175.354 55.0511 172.897 55.2779 180.834C55.5047 188.77 84.2834 204.076 99.2114 210.028" stroke="white" stroke-width="2.14545" stroke-linecap="round" stroke-linejoin="round"/>
<path d="M94.9598 182.251C87.8738 176.582 73.8718 167.228 71.1507 174.031C67.7494 182.534 113.667 236.388 154.199 231.853" stroke="white" stroke-width="2.14545" stroke-linecap="round" stroke-linejoin="round"/>
<path d="M117.635 183.668C127.556 184.235 149.041 186.559 155.616 191.321" stroke="white" stroke-width="2.14545" stroke-linecap="round" stroke-linejoin="round"/>
<path d="M128.406 195.573C137.382 197.084 157.26 196.536 164.97 182.251" stroke="white" stroke-width="2.14545" stroke-linecap="round" stroke-linejoin="round"/>
<path d="M220.808 201.241C215.801 195.384 200.457 186.559 179.142 198.124C152.499 212.579 138.61 212.863 110.833 174.314C110.324 173.537 109.753 172.715 109.132 171.882M109.132 171.882C103.867 164.817 95.0874 156.961 91.8419 168.929C87.3068 185.652 136.909 233.837 165.537 233.837C194.165 233.837 214.572 223.35 229.028 239.223C243.483 255.095 242.35 257.93 252.837 251.978C263.324 246.025 274.095 230.436 264.458 221.082C254.821 211.729 224.207 174.049 162.702 167.228C113.496 161.772 106.485 168.052 109.132 171.882Z" stroke="white" stroke-width="2.14545" stroke-linecap="round" stroke-linejoin="round"/>
<path d="M140.023 125.327H172.903" stroke="white" stroke-width="2.14545"/>
<path d="M140.023 133.263H172.903" stroke="white" stroke-width="2.14545"/>
<path d="M139.669 115.524H173.242V130.24C173.242 139.511 165.727 147.027 156.456 147.027C147.184 147.027 139.669 139.511 139.669 130.24V115.524Z" stroke="white" stroke-width="2.14545"/>
<mask id="path-12-inside-1_611_2021" fill="white">
<path fill-rule="evenodd" clip-rule="evenodd" d="M175.454 105.498C175.454 103.722 176.556 102.144 178.177 101.416C196.623 93.1218 209.467 74.5855 209.467 53.0493C209.467 23.7762 185.736 0.0456543 156.463 0.0456543C127.19 0.0456543 103.459 23.7762 103.459 53.0493C103.459 74.5855 116.304 93.1218 134.75 101.416C136.37 102.144 137.473 103.722 137.473 105.498V112.533C137.473 114.903 139.394 116.824 141.763 116.824H171.163C173.533 116.824 175.454 114.903 175.454 112.533V105.498Z"/>
</mask>
<path d="M134.75 101.416L133.87 103.372L134.75 101.416ZM207.321 53.0493C207.321 73.7105 195.001 91.4986 177.297 99.4589L179.056 103.372C198.244 94.7449 211.612 75.4606 211.612 53.0493H207.321ZM156.463 2.19111C184.551 2.19111 207.321 24.9611 207.321 53.0493H211.612C211.612 22.5913 186.921 -2.0998 156.463 -2.0998V2.19111ZM105.605 53.0493C105.605 24.9611 128.375 2.19111 156.463 2.19111V-2.0998C126.005 -2.0998 101.314 22.5913 101.314 53.0493H105.605ZM135.629 99.4589C117.925 91.4986 105.605 73.7105 105.605 53.0493H101.314C101.314 75.4605 114.682 94.7449 133.87 103.372L135.629 99.4589ZM139.618 112.533V105.498H135.327V112.533H139.618ZM171.163 114.678H141.763V118.969H171.163V114.678ZM173.308 105.498V112.533H177.599V105.498H173.308ZM135.327 112.533C135.327 116.088 138.209 118.969 141.763 118.969V114.678C140.579 114.678 139.618 113.718 139.618 112.533H135.327ZM133.87 103.372C134.784 103.783 135.327 104.634 135.327 105.498H139.618C139.618 102.81 137.956 100.505 135.629 99.4589L133.87 103.372ZM171.163 118.969C174.718 118.969 177.599 116.088 177.599 112.533H173.308C173.308 113.718 172.348 114.678 171.163 114.678V118.969ZM177.297 99.4589C174.97 100.505 173.308 102.81 173.308 105.498H177.599C177.599 104.634 178.143 103.783 179.056 103.372L177.297 99.4589Z" fill="white" mask="url(#path-12-inside-1_611_2021)"/>
<path d="M126.135 39.1607L135.58 29.7153C135.999 29.2964 136.678 29.2964 137.097 29.7153L145.784 38.4022C146.203 38.8211 146.882 38.8211 147.301 38.4022L155.988 29.7153C156.407 29.2964 157.086 29.2964 157.505 29.7153L166.192 38.4022C166.611 38.8211 167.29 38.8211 167.709 38.4022L176.396 29.7153C176.815 29.2964 177.494 29.2964 177.913 29.7153L187.358 39.1607" stroke="#B1FC03" stroke-width="2.14545" stroke-linecap="round" stroke-linejoin="round"/>
<path d="M165.25 92.1644L183.375 57.7661" stroke="white" stroke-width="2.14545" stroke-linecap="round" stroke-linejoin="round"/>
<path d="M148.81 92.1644L132.901 57.7661" stroke="white" stroke-width="2.14545" stroke-linecap="round" stroke-linejoin="round"/>
<path d="M219.671 90.1801L255.951 80.5431" stroke="#B1FC03" stroke-width="2.14545" stroke-linecap="round" stroke-linejoin="round"/>
<path d="M85.3192 90.1801L49.0386 80.5431" stroke="#B1FC03" stroke-width="2.14545" stroke-linecap="round" stroke-linejoin="round"/>
<path d="M208.333 111.722L253.684 132.413" stroke="#B1FC03" stroke-width="2.14545" stroke-linecap="round" stroke-linejoin="round"/>
<path d="M97.7906 112.005L52.4398 132.697" stroke="#B1FC03" stroke-width="2.14545" stroke-linecap="round" stroke-linejoin="round"/>
<rect x="0.563646" y="11.5364" width="307.873" height="234.927" rx="12.3364" stroke="#B1FC03" stroke-opacity="0.12" stroke-width="1.07273"/>
</svg>
