<svg width="135" height="54" viewBox="0 0 135 54" fill="none" xmlns="http://www.w3.org/2000/svg">
<path d="M38.4106 42.8481L0 21.6484L38.2996 0.448671L67.4961 16.1522L96.6926 0L134.992 21.6484L96.5816 42.8481L77.1543 32.4165L86.9234 26.9203L96.8036 32.1922L115.343 21.5362L96.6188 10.4926L38.4106 42.8481ZM38.4106 11.5533L19.5383 21.4241L38.2996 32.1922L58.282 21.6484L38.4106 11.5533Z" fill="#B1FC03"/>
<path d="M96.5898 42.8479V53.9525L135 32.7528V21.6482L96.5898 42.8479Z" fill="#B1FC03"/>
<path d="M96.5898 42.8479V53.9525L135 32.7528V21.6482L96.5898 42.8479Z" fill="black" fill-opacity="0.1"/>
<path d="M38.4094 21.648L29.3063 27.032L19.5371 21.4236L38.4094 11.5529V21.648Z" fill="#B1FC03"/>
<path d="M38.4094 21.648L29.3063 27.032L19.5371 21.4236L38.4094 11.5529V21.648Z" fill="black" fill-opacity="0.1"/>
<path d="M38.4053 42.8482V53.9528L96.5762 21.6484V10.5438L38.4053 42.8482Z" fill="#B1FC03"/>
<path d="M38.4053 42.8482V53.9528L96.5762 21.6484V10.5438L38.4053 42.8482Z" fill="black" fill-opacity="0.1"/>
<path d="M96.5813 42.8484L77.1539 32.4168L67.3848 37.8008L96.5813 53.953V42.8484Z" fill="#B1FC03"/>
<path d="M96.5813 42.8484L77.1539 32.4168L67.3848 37.8008L96.5813 53.953V42.8484Z" fill="black" fill-opacity="0.2"/>
<path d="M38.4053 11.5532V21.6483L48.1744 27.0324L58.3877 21.6483L38.4053 11.5532Z" fill="#B1FC03"/>
<path d="M38.4053 11.5532V21.6483L48.1744 27.0324L58.3877 21.6483L38.4053 11.5532Z" fill="black" fill-opacity="0.2"/>
<path d="M0 21.6483V32.7529L38.4106 53.9527V42.848L0 21.6483Z" fill="#B1FC03"/>
<path d="M0 21.6483V32.7529L38.4106 53.9527V42.848L0 21.6483Z" fill="black" fill-opacity="0.2"/>
<path d="M96.5791 10.5439L115.451 21.6485L105.904 27.1448L96.5791 21.6485V10.5439Z" fill="#B1FC03"/>
<path d="M96.5791 10.5439L115.451 21.6485L105.904 27.1448L96.5791 21.6485V10.5439Z" fill="black" fill-opacity="0.2"/>
</svg>
